<svg xmlns="http://www.w3.org/2000/svg" viewBox="0 0 92.2 73.3" enable-background="new 0 0 92.2 73.3"><style type="text/css">.st0{fill:#41b883;} .st1{fill:#FFFFFF;}</style><path class="st0" d="M14.3 67.8H5c-2.8 0-5-2.2-5-5v-27c0-2.7 2.2-5 5-5h9.3c2.8 0 5 2.2 5 5v27c-.1 2.8-2.3 5-5 5zM5 34.9c-.5 0-1 .4-1 1v27c0 .5.5 1 1 1h9.3c.5 0 1-.4 1-1v-27c0-.5-.5-1-1-1H5z"/><path class="st1" d="M25.5 36.2c0-1.5.9-2.9 2.3-3.6 5-2.1 16.7-8.4 22.6-22.2C52.5 5.7 53.9 2 56.9 2s8.8 3 4.6 25.3h19.7c3.8 0 6.9 3.1 6.9 6.9 0 1.9-.7 3.5-1.9 4.8 2.4.7 4.1 2.8 4.1 5.4 0 2.4-1.5 4.4-3.6 5.2.5 1 .9 2.1.9 3.4 0 3.5-2.6 6.4-5.8 6.5 0 0 1.9 2.4.5 5.8-1.2 2.9-6.6 6.1-19.4 6.1s-22.2-5.5-22.2-5.5h-12c-1.8 0-3.2-1.4-3.2-3.2V36.2z"/><path class="st0" d="M62.8 73.3c-11.7 0-20.5-4.4-22.7-5.5H28.7c-2.9 0-5.2-2.3-5.2-5.2V36.2c0-2.4 1.4-4.5 3.5-5.4 4.6-2 15.9-8 21.6-21.2l.5-1.1C51.1 4 52.8 0 56.9 0c2 0 3.8.9 5.2 2.5 3.1 3.7 3.7 11.4 1.8 22.8h17.4c4.9 0 8.9 4 8.9 8.9 0 1.4-.3 2.8-1 4 1.9 1.4 3.1 3.7 3.1 6.1 0 2.5-1.2 4.7-3.1 6.1.2.8.3 1.6.3 2.5 0 3.6-2.1 6.6-5 7.9.3 1.4.4 3.2-.4 5.2-1.1 2.7-5.4 7.3-21.3 7.3zM56.9 4c-1.4 0-2.5 2.3-4.1 6.1l-.5 1.1C46 25.7 33.7 32.3 28.6 34.5c-.7.3-1.1 1-1.1 1.7v26.4c0 .7.5 1.2 1.2 1.2h11.9c.4 0 .7.1 1 .3.1.1 9 5.3 21.2 5.3 12.3 0 16.9-3.1 17.6-4.9.9-2.2-.1-3.7-.3-3.9-.5-.6-.5-1.4-.2-2.1.3-.7 1-1.1 1.8-1.1 2.1 0 3.8-2 3.8-4.5 0-.8-.2-1.7-.6-2.4-.3-.5-.3-1.1-.1-1.7s.6-1 1.2-1.2c1.4-.5 2.3-1.8 2.3-3.3 0-1.6-1.1-3-2.6-3.5-.7-.2-1.2-.7-1.4-1.4-.2-.7 0-1.4.5-1.9.9-.9 1.3-2.1 1.3-3.4 0-2.7-2.1-4.8-4.8-4.9H61.5c-.6 0-1.2-.3-1.5-.7s-.5-1.1-.4-1.6c2.7-15 .8-20.1-.6-21.8-.6-.7-1.3-1.1-2.1-1.1z"/></svg>